<?xml version="1.0" standalone="no"?>
<!DOCTYPE svg PUBLIC "-//W3C//DTD SVG 20010904//EN"
 "http://www.w3.org/TR/2001/REC-SVG-20010904/DTD/svg10.dtd">
<svg version="1.0" xmlns="http://www.w3.org/2000/svg"
 width="700.000000pt" height="700.000000pt" viewBox="0 0 700.000000 700.000000"
 preserveAspectRatio="xMidYMid meet">
<metadata>
Created by potrace 1.14, written by Peter Selinger 2001-2017
</metadata>
<g transform="translate(0.000000,700.000000) scale(0.100000,-0.100000)"
fill="#000000" stroke="none">
<path d="M574 6421 c-2 -2 -17 -4 -34 -3 -16 0 -33 -5 -37 -11 -13 -19 -11
-5933 1 -5936 6 -1 1349 -3 2985 -4 2278 -2 2977 1 2986 10 9 9 12 707 12
2968 0 2861 -1 2956 -18 2966 -18 9 -5885 19 -5895 10z m60 -104 c11 12 105 9
98 -2 -3 -5 2 -4 12 4 15 13 19 13 27 0 6 -10 9 -11 9 -1 0 10 5 10 21 1 12
-6 19 -7 16 -2 -7 11 34 10 53 -2 8 -5 11 -4 7 2 -4 6 15 9 48 9 32 -1 51 -5
47 -11 -3 -5 2 -4 12 4 15 13 19 13 27 0 5 -8 9 -9 9 -4 0 6 11 10 24 10 13 0
21 -4 18 -10 -3 -5 1 -4 10 3 11 9 18 10 23 2 3 -6 12 -7 18 -3 18 11 106 10
99 -2 -3 -5 2 -4 12 4 15 13 19 13 27 0 5 -8 9 -9 9 -4 0 6 11 10 24 10 13 0
22 -4 19 -9 -4 -5 0 -5 8 0 20 12 149 12 141 -1 -3 -5 2 -4 12 4 15 13 19 13
27 0 5 -8 9 -9 9 -4 0 6 9 11 20 11 11 0 20 -4 20 -9 0 -5 6 -4 14 2 10 8 16
9 21 1 3 -6 12 -7 18 -3 18 11 106 10 99 -2 -3 -5 2 -4 12 4 15 13 19 13 27 0
6 -10 9 -11 9 -1 0 9 5 10 18 3 10 -5 24 -6 32 -1 8 5 22 4 33 -2 11 -5 17 -6
14 -1 -7 11 89 10 99 0 4 -3 16 -2 27 4 15 8 18 8 12 -1 -6 -9 -3 -9 13 -1 14
7 23 8 27 1 4 -6 12 -7 18 -3 20 12 37 12 37 0 0 -8 3 -7 9 2 6 9 11 10 15 2
5 -8 13 -8 28 0 16 8 19 8 13 -1 -6 -9 -3 -9 13 -1 14 7 23 8 27 1 4 -6 11 -7
18 -3 16 9 58 10 63 1 3 -5 14 -3 26 3 16 8 19 8 13 -1 -6 -9 -3 -9 13 -1 14
7 23 8 27 1 4 -6 12 -7 18 -3 17 11 31 10 39 -2 5 -6 8 -5 8 4 0 11 3 11 17 0
15 -12 16 -12 8 1 -8 13 -7 13 8 1 9 -7 17 -9 17 -4 0 11 36 11 46 0 4 -3 11
-4 17 0 17 10 66 9 59 -2 -3 -5 2 -4 12 4 15 13 19 13 27 0 6 -10 9 -11 9 -1
0 10 5 10 21 1 12 -6 19 -7 16 -2 -7 11 34 10 53 -2 8 -5 11 -4 7 2 -4 6 15 9
48 9 32 -1 51 -5 47 -11 -3 -5 2 -4 12 4 15 13 19 13 27 0 5 -8 9 -9 9 -4 0 7
38 10 99 10 63 0 97 -4 93 -10 -3 -5 2 -4 12 4 15 13 19 13 27 0 7 -11 9 -11
9 0 0 11 3 11 15 1 8 -7 15 -8 15 -3 0 7 49 10 58 3 8 -7 29 -5 40 4 10 7 16
5 23 -5 5 -8 9 -9 9 -4 0 6 11 10 24 10 13 0 21 -4 18 -10 -3 -5 1 -4 10 3 11
9 18 10 23 2 3 -6 12 -7 18 -3 16 10 58 10 80 0 9 -4 17 -4 17 1 0 13 34 11
42 -2 6 -8 8 -8 8 0 0 12 29 12 49 -1 9 -5 12 -4 8 2 -3 5 0 10 8 10 8 0 11
-5 8 -11 -5 -8 -3 -8 8 0 15 11 143 13 155 2 4 -4 12 -4 18 -1 18 12 36 12 36
2 0 -6 6 -7 13 -2 20 12 45 14 52 2 5 -7 11 -6 20 1 10 8 15 8 20 0 5 -8 10
-8 20 0 9 8 15 8 20 0 3 -6 12 -7 18 -3 17 11 31 10 39 -2 5 -6 8 -5 8 4 0 10
3 11 14 2 10 -9 16 -9 21 -1 5 8 10 8 20 0 10 -8 15 -8 20 0 5 8 11 7 23 -2
13 -11 14 -11 7 2 -8 13 -7 13 8 1 9 -7 17 -9 17 -4 0 11 36 11 46 0 4 -3 12
-3 18 0 18 12 36 12 36 1 0 -7 5 -6 14 1 10 9 16 9 21 1 5 -8 11 -8 21 1 11 9
14 9 14 -1 0 -10 3 -10 14 -1 10 8 16 9 21 1 3 -6 12 -7 18 -3 20 12 37 12 37
0 0 -8 3 -8 8 -2 9 13 63 15 55 3 -3 -6 4 -5 15 1 14 8 23 8 27 1 5 -8 11 -8
20 0 9 8 15 8 20 0 4 -7 12 -7 26 0 14 8 19 7 19 -2 0 -10 3 -9 9 1 8 13 12
13 27 0 10 -8 15 -9 12 -4 -7 12 96 14 108 3 4 -4 12 -4 18 -1 18 12 36 12 36
1 0 -6 6 -5 15 2 12 10 15 10 15 -1 0 -11 2 -11 9 0 8 13 12 13 27 0 16 -12
17 -12 9 1 -8 13 -7 13 8 1 9 -7 17 -9 17 -3 0 12 33 10 42 -3 5 -6 8 -6 8 2
0 9 19 11 40 3 3 -1 10 -1 15 0 34 7 96 6 101 -1 3 -5 11 -6 17 -2 19 11 117
11 117 -1 0 -6 4 -6 11 1 8 8 20 8 35 3 14 -6 26 -6 29 0 7 12 45 8 45 -5 0
-6 3 -7 8 0 10 14 32 17 32 4 0 -6 5 -7 13 -2 17 11 67 12 67 1 0 -5 6 -6 12
-2 19 12 48 12 48 0 0 -7 3 -7 8 -1 9 13 52 15 52 3 0 -5 5 -6 12 -2 17 11
108 12 114 2 3 -4 11 -5 17 -1 17 10 77 11 83 1 3 -5 11 -5 17 -1 17 10 157
10 157 0 0 -4 6 -5 13 0 17 11 31 10 39 -2 5 -6 8 -6 8 0 0 12 154 14 166 3 4
-4 12 -4 18 0 18 11 136 9 136 -3 0 -5 5 -3 10 5 11 17 10 24 13 -108 1 -45
-2 -82 -6 -82 -5 0 -5 -5 -1 -11 9 -16 11 -159 1 -159 -5 0 -5 -5 -2 -11 10
-15 11 -109 2 -109 -5 0 -5 -5 -1 -11 10 -18 10 -139 -1 -139 -7 0 -7 -3 0 -8
13 -9 15 -52 3 -52 -5 0 -6 -5 -2 -11 9 -15 11 -169 2 -169 -4 0 -4 -10 0 -22
9 -25 8 -57 -1 -81 -3 -8 -3 -18 0 -21 10 -9 9 -226 0 -226 -5 0 -5 -5 -1 -12
11 -17 11 -58 1 -58 -4 0 -5 -5 -1 -11 10 -16 11 -219 1 -219 -5 0 -5 -6 -1
-12 11 -18 12 -48 2 -48 -5 0 -6 -5 -2 -11 11 -18 10 -179 -1 -179 -7 0 -7 -3
0 -8 13 -9 15 -52 3 -52 -5 0 -6 -5 -2 -12 11 -18 10 -68 -1 -68 -7 0 -7 -3 0
-8 6 -4 10 -16 10 -27 0 -11 -4 -23 -10 -27 -6 -5 -5 -8 2 -8 9 0 10 -7 3 -25
-6 -15 -6 -27 0 -30 6 -3 6 -15 0 -29 -5 -13 -6 -27 -3 -30 6 -5 8 -497 3
-521 -1 -5 -1 -12 0 -15 1 -3 2 -708 3 -1566 l2 -1562 -40 -1 c-22 0 -50 -3
-62 -5 -13 -3 -23 0 -23 5 0 6 -4 8 -9 4 -17 -10 -71 -13 -71 -3 0 5 -4 7 -9
3 -17 -10 -71 -13 -71 -3 0 5 -4 7 -9 3 -17 -10 -71 -13 -71 -3 0 5 -4 7 -9 3
-17 -10 -71 -13 -71 -3 0 5 -4 7 -9 3 -17 -10 -71 -13 -71 -3 0 5 -4 7 -9 3
-17 -10 -71 -13 -71 -3 0 5 -4 7 -9 3 -17 -10 -71 -13 -71 -3 0 5 -4 7 -9 3
-17 -10 -71 -13 -71 -3 0 5 -4 7 -9 3 -17 -10 -71 -13 -71 -3 0 5 -4 7 -9 3
-17 -10 -71 -13 -71 -3 0 5 -4 7 -9 3 -17 -10 -71 -13 -71 -3 0 5 -4 7 -9 3
-17 -10 -71 -13 -71 -3 0 5 -4 7 -9 3 -17 -10 -71 -13 -71 -3 0 5 -4 7 -9 3
-17 -10 -71 -13 -71 -3 0 5 -4 7 -9 3 -17 -10 -71 -13 -71 -3 0 5 -4 7 -9 3
-17 -10 -71 -13 -71 -3 0 5 -4 7 -9 3 -17 -10 -71 -13 -71 -3 0 5 -4 7 -9 3
-17 -10 -71 -13 -71 -3 0 5 -4 7 -9 3 -17 -10 -71 -13 -71 -3 0 5 -4 7 -9 3
-17 -10 -71 -13 -71 -3 0 5 -4 7 -9 3 -17 -10 -71 -13 -71 -3 0 5 -4 7 -9 3
-17 -10 -71 -13 -71 -3 0 5 -4 7 -9 3 -17 -10 -71 -13 -71 -3 0 5 -4 7 -9 3
-17 -10 -71 -13 -71 -3 0 5 -4 7 -9 3 -17 -10 -71 -13 -71 -3 0 5 -4 7 -9 3
-17 -10 -71 -13 -71 -3 0 5 -4 7 -9 3 -17 -10 -71 -13 -71 -3 0 5 -4 7 -9 3
-17 -10 -71 -13 -71 -3 0 5 -4 7 -9 3 -17 -10 -71 -13 -71 -3 0 5 -4 7 -9 3
-14 -8 -71 -13 -71 -6 0 3 -17 5 -37 3 -21 -1 -45 -3 -53 -2 -37 1 -67 0 -87
-4 -13 -3 -25 0 -29 5 -4 7 -10 7 -18 0 -7 -6 -17 -6 -26 -1 -8 5 -22 4 -33
-2 -15 -7 -18 -7 -12 2 6 9 3 9 -12 2 -11 -6 -25 -7 -33 -2 -7 4 -18 7 -24 5
-30 -10 -77 -12 -82 -4 -4 6 -10 6 -18 0 -7 -6 -17 -6 -26 -1 -8 5 -22 4 -33
-2 -15 -8 -18 -7 -12 3 6 8 4 10 -4 4 -15 -9 -189 -10 -198 -2 -3 4 -15 2 -26
-4 -15 -8 -18 -8 -12 1 6 9 3 9 -12 2 -11 -6 -25 -7 -33 -2 -7 4 -18 7 -24 5
-30 -10 -77 -12 -82 -4 -4 6 -10 6 -18 0 -7 -6 -17 -6 -26 -1 -8 5 -22 4 -33
-2 -15 -8 -18 -7 -12 3 6 8 4 10 -4 4 -15 -9 -189 -10 -198 -2 -3 4 -15 2 -26
-4 -15 -9 -18 -8 -12 2 6 8 4 10 -4 4 -15 -9 -189 -10 -198 -2 -3 4 -15 2 -26
-4 -15 -9 -18 -8 -12 2 6 8 4 10 -4 4 -15 -9 -189 -10 -198 -2 -3 4 -15 2 -26
-4 -15 -9 -18 -8 -12 2 6 8 4 10 -4 4 -15 -8 -179 -11 -187 -2 -3 3 -17 2 -30
-3 -16 -6 -24 -6 -24 1 0 6 -5 7 -12 3 -14 -9 -58 -12 -58 -4 0 3 -11 5 -25 5
-14 0 -25 -2 -25 -5 0 -5 -50 -5 -57 0 -4 2 -72 2 -78 0 -6 -3 -44 -3 -47 0
-7 5 -58 5 -58 0 0 -3 -11 -5 -25 -5 -14 0 -25 2 -25 5 0 3 -19 4 -42 3 -24
-1 -43 -2 -43 -3 0 -1 -10 -3 -22 -4 -13 -2 -23 0 -23 3 0 3 -13 6 -30 6 -16
0 -30 -3 -30 -7 0 -7 -39 -2 -47 6 -2 2 -20 0 -39 -4 -19 -4 -36 -4 -39 0 -3
5 -19 5 -35 0 -16 -5 -32 -5 -35 -1 -2 5 -23 5 -45 1 -22 -4 -43 -4 -45 1 -3
4 -19 4 -35 -1 -18 -5 -32 -5 -36 1 -4 6 -11 6 -19 -1 -10 -8 -15 -8 -20 0 -5
8 -10 8 -20 0 -10 -8 -15 -8 -20 0 -5 8 -10 8 -20 0 -10 -8 -15 -8 -20 0 -5 8
-10 8 -20 0 -10 -8 -15 -8 -20 0 -5 8 -10 8 -20 0 -10 -8 -15 -8 -20 0 -5 8
-10 8 -20 0 -10 -8 -15 -8 -20 0 -5 8 -10 8 -20 0 -10 -8 -15 -8 -20 0 -5 8
-10 8 -20 0 -9 -8 -15 -8 -20 0 -3 6 -11 8 -16 5 -5 -4 -9 2 -9 12 -5 234 -3
463 2 463 4 0 4 10 -1 21 -4 12 -4 41 -1 65 4 24 5 46 2 49 -3 2 -4 33 -4 67
1 75 3 650 2 661 -4 39 -1 148 5 156 3 6 3 11 -2 11 -4 0 -7 28 -6 62 5 202 5
236 -1 246 -3 6 -2 14 4 17 7 4 7 12 2 18 -4 7 -7 23 -5 37 5 44 2 383 -3 392
-3 4 0 8 6 8 6 0 9 4 6 8 -6 10 -8 59 -5 159 1 39 -1 76 -5 81 -3 6 -2 13 4
17 6 4 7 11 3 17 -9 15 -8 71 1 86 4 7 2 12 -6 12 -9 0 -9 3 2 10 11 7 11 10
2 10 -8 0 -10 5 -6 12 10 16 11 68 1 68 -5 0 -5 5 -2 10 8 13 7 829 -1 842 -3
4 3 8 13 8 14 0 15 2 5 9 -8 5 -13 24 -12 47 1 22 2 42 1 47 -2 14 4 22 14 19
6 -2 3 4 -5 12 -12 12 -14 34 -10 108 3 51 3 364 0 696 -4 530 -3 602 10 603
10 0 11 2 3 6 -10 3 -13 72 -13 292 0 158 3 291 7 294 3 4 11 2 18 -3 7 -5 15
-7 19 -3z"/>
<path d="M2926 6278 c3 -5 10 -6 15 -3 13 9 11 12 -6 12 -8 0 -12 -4 -9 -9z"/>
<path d="M3830 6246 c0 -2 7 -7 16 -10 8 -3 12 -2 9 4 -6 10 -25 14 -25 6z"/>
<path d="M5186 6238 c3 -5 10 -6 15 -3 13 9 11 12 -6 12 -8 0 -12 -4 -9 -9z"/>
<path d="M5475 6241 c-3 -5 -2 -12 3 -15 5 -3 9 1 9 9 0 17 -3 19 -12 6z"/>
<path d="M4550 6200 c0 -5 5 -10 11 -10 5 0 7 5 4 10 -3 6 -8 10 -11 10 -2 0
-4 -4 -4 -10z"/>
<path d="M5235 6200 c3 -5 8 -10 11 -10 2 0 4 5 4 10 0 6 -5 10 -11 10 -5 0
-7 -4 -4 -10z"/>
<path d="M4994 6120 c0 -13 4 -16 10 -10 7 7 7 13 0 20 -6 6 -10 3 -10 -10z"/>
<path d="M3629 6043 c-13 -16 -12 -17 4 -4 16 13 21 21 13 21 -2 0 -10 -8 -17
-17z"/>
<path d="M4993 6005 c0 -8 4 -12 9 -9 5 3 6 10 3 15 -9 13 -12 11 -12 -6z"/>
<path d="M1356 5958 c3 -5 10 -6 15 -3 13 9 11 12 -6 12 -8 0 -12 -4 -9 -9z"/>
<path d="M2950 5961 c0 -6 4 -13 10 -16 6 -3 7 1 4 9 -7 18 -14 21 -14 7z"/>
<path d="M3435 5960 c3 -5 8 -10 11 -10 2 0 4 5 4 10 0 6 -5 10 -11 10 -5 0
-7 -4 -4 -10z"/>
<path d="M715 5891 c-3 -5 -2 -12 3 -15 5 -3 9 1 9 9 0 17 -3 19 -12 6z"/>
<path d="M4359 5898 c-5 -18 -6 -38 -1 -34 7 8 12 36 6 36 -2 0 -4 -1 -5 -2z"/>
<path d="M2233 5875 c0 -8 4 -12 9 -9 5 3 6 10 3 15 -9 13 -12 11 -12 -6z"/>
<path d="M2550 5881 c0 -6 4 -13 10 -16 6 -3 7 1 4 9 -7 18 -14 21 -14 7z"/>
<path d="M3750 5856 c0 -2 8 -10 18 -17 15 -13 16 -12 3 4 -13 16 -21 21 -21
13z"/>
<path d="M4833 5835 c0 -8 4 -12 9 -9 5 3 6 10 3 15 -9 13 -12 11 -12 -6z"/>
<path d="M3910 5776 c0 -2 8 -10 18 -17 15 -13 16 -12 3 4 -13 16 -21 21 -21
13z"/>
<path d="M5510 5776 c0 -2 8 -10 18 -17 15 -13 16 -12 3 4 -13 16 -21 21 -21
13z"/>
<path d="M2716 5713 c-6 -14 -5 -15 5 -6 7 7 10 15 7 18 -3 3 -9 -2 -12 -12z"/>
<path d="M720 5640 c-9 -6 -10 -10 -3 -10 6 0 15 5 18 10 8 12 4 12 -15 0z"/>
<path d="M1756 5633 c-6 -14 -5 -15 5 -6 7 7 10 15 7 18 -3 3 -9 -2 -12 -12z"/>
<path d="M1996 5642 c-3 -5 1 -9 9 -9 8 0 12 4 9 9 -3 4 -7 8 -9 8 -2 0 -6 -4
-9 -8z"/>
<path d="M5319 5633 c-13 -16 -12 -17 4 -4 16 13 21 21 13 21 -2 0 -10 -8 -17
-17z"/>
<path d="M3756 5602 c-3 -5 1 -9 9 -9 8 0 12 4 9 9 -3 4 -7 8 -9 8 -2 0 -6 -4
-9 -8z"/>
<path d="M4515 5601 c-3 -5 -2 -12 3 -15 5 -3 9 1 9 9 0 17 -3 19 -12 6z"/>
<path d="M3040 5520 c-9 -6 -10 -10 -3 -10 6 0 15 5 18 10 8 12 4 12 -15 0z"/>
<path d="M4195 5520 c3 -5 8 -10 11 -10 2 0 4 5 4 10 0 6 -5 10 -11 10 -5 0
-7 -4 -4 -10z"/>
<path d="M1544 5462 c-6 -4 -11 -22 -10 -40 1 -17 -3 -32 -8 -32 -5 0 -3 -7 5
-16 10 -13 10 -17 -2 -25 -12 -7 -12 -9 1 -9 12 0 12 -2 1 -9 -10 -6 -10 -10
-1 -16 9 -6 9 -10 -1 -16 -9 -6 -10 -9 -2 -9 8 0 9 -9 3 -29 -4 -16 -6 -32 -3
-35 9 -9 9 -76 -1 -76 -4 0 -3 -7 5 -16 10 -13 10 -17 0 -24 -11 -6 -11 -9 0
-13 9 -3 9 -6 2 -6 -8 -1 -9 -10 -3 -31 5 -19 5 -30 -1 -30 -6 0 -7 -5 -3 -12
4 -7 8 -24 8 -38 0 -14 -4 -31 -8 -38 -4 -7 -2 -12 6 -12 9 0 9 -3 -2 -10 -10
-6 -11 -10 -2 -10 18 0 15 -18 -5 -23 -16 -4 -16 -5 1 -6 15 -1 16 -4 6 -16
-7 -8 -9 -15 -4 -15 11 0 10 -51 0 -68 -4 -7 -3 -12 2 -12 10 0 9 -30 -1 -47
-4 -6 -1 -14 5 -16 10 -4 9 -8 -2 -16 -12 -8 -12 -11 -1 -11 10 0 11 -3 2 -14
-9 -11 -9 -15 1 -19 10 -4 10 -8 -2 -16 -8 -6 -10 -11 -5 -11 6 0 10 -24 10
-52 0 -29 -4 -56 -10 -60 -6 -5 -5 -8 3 -8 7 0 10 -5 7 -10 -4 -6 -12 -8 -18
-4 -7 3 -3 -2 8 -11 17 -14 18 -17 5 -25 -13 -9 -13 -10 0 -10 11 -1 10 -4 -4
-15 -17 -13 -18 -15 -3 -15 22 0 22 -9 0 -26 -13 -10 -13 -12 -3 -9 12 4 15
-5 15 -47 0 -29 -4 -56 -10 -60 -6 -5 -5 -8 4 -8 10 0 11 -3 2 -14 -9 -11 -9
-15 1 -19 10 -4 10 -8 -2 -16 -12 -8 -12 -11 -1 -11 11 0 11 -3 1 -15 -7 -8
-9 -15 -4 -15 10 0 10 -92 0 -109 -4 -6 -4 -11 1 -11 10 0 9 -52 -1 -68 -4 -7
-4 -12 1 -12 10 0 9 -52 -1 -68 -4 -7 -4 -12 1 -12 10 0 9 -52 -1 -68 -4 -7
-2 -12 3 -12 6 0 11 -5 11 -11 0 -5 -6 -7 -12 -3 -10 6 -10 5 -1 -7 10 -12 10
-18 1 -27 -7 -7 -8 -12 -2 -12 6 0 10 -10 9 -22 -2 -14 -8 -22 -16 -20 -11 2
-11 -1 1 -10 17 -15 22 -138 5 -150 -6 -5 -5 -8 4 -8 11 0 11 -3 1 -15 -7 -8
-8 -15 -3 -15 11 0 11 -29 -1 -48 -4 -6 -4 -12 1 -12 14 0 7 -218 -7 -235 -11
-13 -10 -14 1 -10 12 4 14 -30 13 -212 -1 -120 -3 -222 -4 -228 -1 -5 -1 -12
0 -15 1 -3 2 -265 2 -583 1 -525 3 -579 18 -587 9 -5 22 -5 30 0 7 4 24 4 37
-1 14 -5 23 -5 23 1 0 6 9 6 23 1 13 -5 30 -6 37 -1 7 5 24 4 37 -1 14 -5 23
-5 23 1 0 6 9 6 23 1 13 -5 30 -6 37 -1 7 5 24 4 37 -1 12 -5 23 -5 23 -1 0 8
329 6 338 -2 3 -3 11 -1 18 5 8 6 14 6 18 0 4 -6 18 -6 35 -1 15 4 34 4 42 -1
8 -5 16 -3 21 4 5 9 10 9 19 0 7 -7 21 -8 39 -3 15 4 33 4 41 -1 8 -5 16 -3
20 3 6 9 11 9 22 0 7 -7 17 -9 20 -6 3 4 29 6 56 6 34 -1 51 3 54 13 3 7 1 16
-6 19 -9 3 -8 8 3 15 13 10 13 11 0 11 -12 0 -12 2 -1 9 9 6 10 10 2 16 -9 5
-9 10 0 21 9 11 9 17 -1 29 -9 11 -9 15 -1 15 7 0 9 5 4 13 -12 19 -13 40 -1
54 7 9 7 13 -2 13 -9 0 -10 3 -1 13 7 10 7 17 0 24 -8 8 -8 17 0 32 7 12 8 21
2 21 -14 0 -7 30 10 41 11 7 10 9 -5 9 -15 0 -16 3 -6 15 7 9 10 18 6 22 -3 3
-6 0 -6 -7 0 -7 -3 -11 -6 -8 -3 4 -1 16 6 27 8 16 8 21 -1 21 -8 0 -8 4 1 15
7 8 8 15 3 15 -17 0 -10 70 7 71 10 0 8 3 -5 9 -13 6 -15 9 -5 9 13 1 13 2 0
11 -13 9 -13 10 0 10 12 0 12 2 1 9 -9 6 -10 10 -2 16 9 5 9 10 1 20 -8 10 -8
19 0 34 8 16 8 21 -1 21 -8 0 -8 4 1 15 9 10 9 15 1 15 -6 0 -11 5 -11 11 0 5
5 7 12 3 7 -4 8 -3 4 5 -4 6 -2 19 5 27 7 8 8 14 3 13 -21 -4 -26 2 -14 16 7
9 8 15 2 15 -15 0 -8 30 9 41 11 7 10 9 -5 9 -15 0 -16 3 -6 15 7 9 10 18 6
22 -3 3 -6 0 -6 -7 0 -7 -3 -11 -6 -8 -3 4 -1 16 6 27 8 15 8 21 0 21 -6 0 -8
5 -5 10 4 6 12 8 18 4 7 -3 4 1 -5 9 -20 16 -25 32 -6 21 7 -4 8 -3 4 5 -4 6
-2 19 6 28 8 10 8 14 1 10 -6 -4 -14 -3 -17 2 -4 5 -2 12 4 16 7 4 7 12 0 25
-8 15 -6 21 7 29 17 10 17 10 -2 11 -15 0 -16 3 -7 12 7 7 12 17 12 22 0 6 -5
4 -11 -4 -9 -12 -10 -12 -5 3 3 10 6 23 6 28 0 6 6 7 13 4 6 -4 4 0 -6 8 -14
11 -15 16 -5 20 10 4 10 6 1 6 -7 1 -13 6 -13 12 0 5 5 7 12 3 7 -4 8 -3 4 5
-4 6 -2 19 6 28 8 10 8 14 1 10 -6 -4 -14 -3 -17 2 -4 5 -2 12 4 16 7 4 7 12
0 25 -8 15 -6 21 7 29 17 10 17 10 -2 11 -15 0 -16 3 -7 12 7 7 12 17 12 22 0
6 -5 4 -11 -4 -9 -12 -10 -12 -5 3 3 10 6 23 6 28 0 6 6 7 13 4 6 -4 3 1 -7 9
-14 11 -15 16 -6 16 11 0 11 3 2 12 -7 7 -8 17 -2 29 6 10 6 20 2 23 -10 6 -8
68 2 84 4 7 3 12 -1 12 -5 0 -9 21 -8 46 0 25 -4 48 -8 51 -5 3 -3 10 4 14 11
8 10 12 -5 24 -14 11 -16 15 -5 15 9 0 14 10 14 29 0 16 -3 27 -7 24 -5 -2 -8
0 -8 6 0 5 6 12 13 14 8 4 7 6 -3 6 -17 1 -21 46 -7 69 5 7 4 12 -2 12 -6 0
-11 5 -11 11 0 5 5 7 12 3 7 -5 8 -3 2 7 -5 8 -9 45 -10 82 -2 37 -7 74 -13
81 -6 7 -8 16 -4 20 13 12 14 56 2 56 -8 0 -8 4 1 15 7 8 8 15 3 15 -5 0 -8
16 -8 37 1 26 6 37 18 39 9 1 17 -3 17 -9 0 -8 3 -8 8 -2 14 20 31 14 57 -20
14 -19 23 -35 19 -35 -4 0 3 -11 15 -24 17 -18 19 -25 9 -29 -9 -4 -7 -6 5 -6
10 -1 24 -17 34 -41 10 -22 21 -40 25 -40 5 0 8 -7 8 -15 0 -8 5 -15 10 -15 6
0 10 -7 10 -15 0 -8 5 -15 11 -15 6 0 9 -9 6 -19 -3 -13 0 -18 8 -15 7 3 16 0
21 -7 5 -8 3 -10 -7 -5 -10 6 -10 4 1 -6 8 -7 21 -25 29 -40 8 -16 18 -28 23
-28 5 0 6 -5 3 -10 -3 -6 1 -13 9 -16 9 -3 16 -13 16 -21 0 -8 4 -11 10 -8 6
3 7 -1 4 -9 -4 -9 0 -18 9 -22 9 -3 18 -13 21 -21 6 -14 4 -14 -11 -2 -17 13
-17 13 0 -7 9 -11 14 -24 10 -29 -5 -4 -3 -6 2 -2 6 3 17 2 25 -4 13 -8 13 -9
0 -9 -10 0 -7 -5 8 -16 12 -8 22 -21 22 -29 0 -7 4 -15 9 -17 5 -1 11 -10 13
-18 2 -8 11 -21 21 -28 9 -7 17 -20 17 -28 0 -8 4 -13 9 -10 5 4 8 -2 7 -11
-3 -19 15 -44 26 -37 4 2 10 -1 14 -7 4 -8 3 -9 -4 -5 -7 4 -12 3 -12 -2 0 -5
10 -14 23 -20 13 -6 16 -11 7 -11 -10 -1 -7 -6 8 -17 12 -8 22 -22 22 -30 0
-8 5 -12 10 -9 6 4 9 1 8 -7 -2 -7 3 -12 11 -10 8 2 11 -3 8 -13 -4 -9 -1 -15
8 -15 8 0 15 -9 15 -21 0 -11 5 -17 10 -14 6 3 10 1 10 -5 0 -17 26 -40 35
-32 5 4 5 2 1 -5 -8 -14 23 -55 36 -47 4 3 5 -1 2 -9 -3 -8 2 -17 10 -20 9 -4
16 -13 16 -22 0 -8 5 -15 10 -15 6 0 10 -7 10 -16 0 -8 4 -12 10 -9 6 3 10 -1
10 -9 0 -9 4 -16 9 -16 5 0 13 -9 16 -20 3 -11 13 -20 21 -20 8 0 14 -5 14
-11 0 -5 -6 -7 -12 -3 -7 4 2 -6 19 -23 18 -16 30 -33 26 -36 -3 -4 1 -7 10
-7 11 0 15 -7 12 -20 -2 -11 0 -18 4 -16 9 6 34 -22 44 -48 4 -9 11 -14 17
-11 5 3 7 0 4 -9 -3 -8 3 -19 15 -26 12 -6 21 -18 21 -26 0 -8 4 -13 9 -10 11
7 23 -22 14 -36 -3 -6 -1 -8 4 -5 6 4 16 0 23 -8 7 -8 9 -15 5 -15 -5 0 4 -10
18 -23 15 -12 27 -28 27 -35 0 -8 5 -10 12 -6 8 5 9 2 5 -9 -4 -11 -1 -17 7
-17 7 0 18 -11 24 -25 6 -14 16 -25 22 -25 5 0 10 -7 10 -16 0 -9 5 -12 12 -8
7 4 8 3 4 -4 -7 -12 28 -54 38 -45 3 3 4 -4 1 -15 -2 -13 1 -21 8 -19 7 1 11
-4 10 -10 -2 -7 4 -13 13 -13 8 0 12 -5 9 -10 -3 -6 1 -13 9 -16 9 -3 16 -11
16 -16 0 -6 8 -17 18 -24 9 -7 17 -18 17 -26 1 -7 6 -12 13 -11 7 2 12 -6 12
-18 0 -11 5 -17 10 -14 5 3 10 -1 10 -9 0 -9 5 -16 12 -16 6 0 8 -3 5 -6 -4
-4 8 -20 26 -36 17 -17 26 -27 20 -23 -7 3 -13 1 -13 -4 0 -6 5 -11 11 -11 14
0 40 -26 32 -34 -3 -3 2 -8 11 -12 9 -3 16 -12 16 -20 0 -7 8 -18 18 -23 9 -6
13 -11 7 -11 -5 0 1 -7 13 -16 12 -8 22 -22 22 -30 0 -8 5 -12 10 -9 8 5 15
-9 8 -17 -1 -2 15 -21 35 -42 19 -22 34 -43 31 -48 -3 -4 1 -5 9 -2 8 3 18 0
22 -5 3 -6 11 -9 16 -5 9 5 83 8 104 4 6 -1 15 -1 20 0 13 2 87 2 100 0 6 -1
15 -1 20 0 25 5 95 3 101 -2 3 -4 17 -3 30 2 16 6 24 6 24 -1 0 -6 5 -7 12 -3
15 10 138 11 138 2 0 -4 6 -5 13 -3 29 10 67 13 67 5 0 -5 6 -7 13 -5 29 10
67 13 67 5 0 -5 6 -7 13 -5 29 10 67 13 67 5 0 -5 6 -7 13 -5 29 10 67 13 67
5 0 -5 6 -7 13 -5 29 10 67 13 67 5 0 -5 6 -7 13 -5 29 10 67 13 67 5 0 -5 6
-7 14 -4 8 3 29 6 47 7 22 1 33 7 35 20 1 9 -3 17 -9 17 -8 0 -7 3 1 9 17 11
17 21 0 32 -9 6 -9 9 -1 9 14 0 13 40 -2 40 -6 0 -7 3 0 8 15 11 17 32 2 32
-8 0 -8 3 2 9 12 8 12 12 2 24 -8 11 -9 17 -1 22 8 5 8 10 0 20 -8 10 -8 15 0
20 8 5 8 11 1 19 -6 7 -8 16 -4 20 12 11 11 66 0 66 -5 0 -4 7 4 16 10 13 10
17 -2 25 -8 5 -9 9 -3 9 6 0 11 7 11 15 0 8 -5 15 -11 15 -6 0 -5 4 3 9 12 8
12 12 2 24 -8 11 -9 17 -1 22 8 5 8 10 0 20 -8 10 -8 15 0 20 8 5 7 11 -2 23
-9 10 -9 13 -1 9 8 -5 11 0 10 13 -1 11 -5 20 -10 20 -5 0 -4 7 4 16 10 13 10
17 -2 25 -8 5 -9 9 -3 9 6 0 11 7 11 15 0 8 -5 15 -11 15 -6 0 -5 4 3 9 12 8
12 12 2 24 -8 11 -9 17 -1 22 8 5 8 10 0 20 -8 10 -8 15 0 20 8 5 7 11 -2 23
-9 10 -9 13 -1 9 8 -5 11 0 10 13 -1 11 -5 20 -10 20 -5 0 -4 6 2 14 9 10 9
16 1 21 -8 5 -7 11 2 23 10 12 10 16 0 19 -6 3 -9 10 -5 16 11 18 11 67 0 67
-5 0 -4 7 4 16 10 13 10 17 -2 25 -10 6 -10 9 -2 9 15 0 13 21 -2 32 -7 5 -6
8 0 8 6 0 11 9 12 20 1 13 -2 18 -10 13 -8 -4 -8 -1 1 9 9 12 10 18 2 23 -8 5
-8 11 -1 19 7 9 7 17 -2 26 -9 9 -9 11 0 6 8 -4 11 1 10 14 -1 11 -6 20 -12
20 -6 0 -7 3 0 8 15 11 17 32 2 32 -8 0 -8 3 2 9 12 8 12 12 2 24 -8 11 -9 17
-1 22 8 5 7 11 -2 23 -9 10 -9 13 -1 9 8 -5 11 0 10 13 -1 11 -6 20 -12 20 -5
0 -4 4 4 9 12 8 12 13 3 24 -10 11 -9 17 3 27 10 8 12 18 6 29 -5 9 -6 22 -3
30 3 10 0 11 -9 5 -11 -6 -11 -4 0 10 13 15 13 19 0 27 -10 6 -10 9 -1 9 6 0
12 5 12 11 0 5 -6 7 -12 3 -9 -6 -9 -3 0 9 8 9 11 21 7 27 -3 5 0 10 7 11 7 0
4 4 -7 9 -11 5 -15 9 -10 9 6 1 11 10 12 21 1 13 -2 18 -10 13 -7 -4 -6 1 2
11 13 15 13 19 0 27 -8 5 -9 9 -3 9 6 0 11 16 11 35 0 19 -5 35 -11 35 -6 0
-5 4 3 9 13 8 13 12 0 27 -12 15 -12 17 0 9 11 -6 13 -4 8 7 -3 9 0 21 6 27 9
9 7 10 -8 5 -17 -7 -18 -6 -7 8 9 12 10 18 2 23 -8 5 -7 11 1 22 10 11 10 16
0 23 -11 6 -11 8 0 12 11 4 12 8 2 20 -10 11 -10 17 0 27 9 11 9 14 -1 18 -10
4 -8 9 5 20 10 8 13 12 7 9 -18 -9 -25 21 -9 34 10 8 12 18 6 29 -5 9 -7 25
-5 36 1 10 -2 25 -7 31 -7 8 -7 14 0 18 12 8 11 46 -1 63 -5 7 -5 14 2 18 8 5
8 10 0 20 -8 10 -8 15 1 21 8 5 9 3 4 -6 -5 -9 -4 -11 4 -6 8 5 9 12 3 19 -5
7 -8 20 -7 29 2 10 -1 21 -6 24 -6 3 -5 12 3 22 11 12 11 16 0 20 -10 3 -8 8
5 19 10 8 13 12 6 9 -12 -7 -12 38 0 51 4 3 2 12 -4 20 -6 7 -8 13 -3 13 5 0
2 5 -6 10 -10 6 -11 10 -2 10 6 0 12 7 12 15 0 8 -6 15 -12 15 -8 0 -9 3 -3 8
16 11 19 46 3 36 -10 -6 -10 -4 1 9 7 9 10 17 5 17 -4 0 -3 5 4 12 9 9 8 16
-6 32 -10 12 -12 16 -3 11 11 -6 13 -4 8 7 -3 9 0 21 6 27 9 9 7 10 -8 5 -18
-7 -19 -6 -6 9 8 10 11 20 8 24 -4 3 -1 13 6 21 8 10 8 13 1 9 -7 -4 -15 0
-18 9 -3 8 -2 13 3 10 5 -3 12 1 15 10 3 8 2 13 -3 10 -5 -3 -12 1 -15 10 -3
8 -2 13 3 10 5 -3 9 5 9 19 0 16 -5 22 -12 18 -6 -4 -5 1 3 11 13 15 13 19 0
27 -8 5 -9 9 -3 9 7 0 11 23 11 60 0 36 -4 57 -10 53 -6 -4 -7 -1 -1 8 5 8 9
21 9 29 0 8 4 20 8 27 4 6 2 15 -4 19 -8 5 -9 3 -4 -6 5 -9 4 -11 -4 -6 -8 6
-9 12 -2 20 7 9 7 16 0 23 -8 8 -7 13 2 18 8 6 10 4 4 -5 -6 -9 -4 -11 4 -6 9
6 8 13 -6 29 -10 11 -13 18 -7 14 7 -4 11 5 12 24 0 20 -3 27 -11 22 -9 -5 -9
-3 0 8 13 16 12 36 -1 58 -6 9 -5 12 1 8 6 -4 10 6 11 24 0 19 -3 27 -10 23
-6 -4 -4 3 5 16 15 22 15 25 -1 44 -9 11 -11 16 -4 12 7 -4 12 -1 12 9 0 10
-5 13 -12 9 -9 -5 -9 -2 1 9 7 9 10 17 5 17 -4 0 -3 5 4 12 7 7 8 17 1 30 -5
10 -7 18 -3 18 3 0 0 8 -7 17 -10 11 -10 14 -1 9 8 -5 11 -1 8 16 -2 13 1 31
6 40 7 14 5 16 -9 11 -16 -6 -16 -5 -4 10 11 14 11 20 0 34 -8 10 -9 14 -2 10
8 -5 11 2 11 23 -1 17 -5 33 -10 36 -5 3 -4 12 2 19 7 8 9 18 6 24 -3 5 0 12
6 14 10 4 10 6 0 6 -7 1 -10 6 -6 13 5 7 3 8 -7 3 -20 -13 -49 -13 -49 -1 0 6
-4 5 -9 -3 -6 -9 -11 -10 -15 -2 -4 6 -12 8 -19 4 -17 -11 -57 -10 -57 2 0 5
-5 3 -10 -5 -7 -11 -10 -11 -10 -2 0 9 -5 10 -16 4 -9 -5 -31 -6 -49 -2 -18 4
-39 4 -47 -1 -7 -4 -20 -4 -27 0 -7 5 -28 5 -47 1 -23 -5 -34 -4 -34 4 0 6 -5
4 -10 -4 -7 -11 -10 -11 -10 -2 0 9 -5 10 -19 2 -11 -5 -22 -6 -25 -2 -3 5
-20 7 -38 5 -78 -8 -128 -8 -128 0 0 4 -7 4 -17 -1 -9 -6 -29 -6 -45 -2 -15 5
-28 6 -28 2 0 -4 -32 -7 -70 -7 -39 0 -70 3 -70 7 0 4 -6 5 -12 3 -25 -10
-118 -12 -118 -3 0 5 -8 4 -18 -1 -11 -6 -24 -6 -34 0 -10 6 -19 6 -23 0 -3
-6 -12 -8 -19 -5 -8 3 -17 0 -22 -7 -4 -7 -3 -10 3 -6 6 4 13 0 16 -8 4 -10 1
-12 -10 -8 -12 5 -14 3 -8 -7 12 -20 13 -110 1 -102 -6 3 -5 -2 3 -11 11 -14
11 -17 0 -17 -11 0 -11 -2 1 -10 13 -8 13 -10 1 -10 -11 0 -9 -4 5 -15 19 -15
19 -15 -1 -8 -18 6 -18 5 -6 -10 11 -14 11 -17 0 -17 -9 -1 -8 -5 5 -15 19
-14 19 -15 2 -15 -15 0 -16 -3 -7 -14 9 -11 9 -15 -1 -19 -8 -3 -6 -6 5 -6 10
-1 15 -6 12 -11 -4 -6 -10 -8 -14 -6 -4 3 -8 -1 -8 -9 0 -8 7 -15 16 -15 13
-1 13 -2 -2 -11 -9 -6 -14 -15 -11 -21 9 -14 9 -69 1 -91 -3 -9 -1 -19 5 -23
7 -5 8 -2 3 6 -5 9 -4 11 4 6 7 -5 9 -12 3 -19 -13 -16 -11 -50 2 -59 8 -6 8
-8 0 -8 -7 0 -15 -7 -18 -16 -3 -8 -2 -13 3 -10 5 3 12 -1 15 -10 3 -8 2 -12
-4 -9 -6 3 -10 -1 -10 -9 0 -9 5 -16 11 -16 6 0 3 -7 -5 -16 -17 -17 -21 -28
-7 -20 5 3 12 -1 15 -10 3 -8 2 -13 -3 -10 -5 3 -11 -5 -13 -19 -3 -13 -2 -22
2 -20 5 3 10 -2 13 -10 4 -10 1 -12 -11 -8 -16 6 -16 5 0 -13 12 -13 14 -24 8
-30 -5 -5 -10 -21 -10 -34 -1 -60 6 -146 13 -157 6 -9 3 -11 -10 -6 -16 6 -16
5 -4 -10 7 -9 10 -24 7 -33 -4 -9 -1 -23 5 -30 10 -12 8 -13 -6 -8 -16 7 -16
5 1 -22 13 -20 14 -25 4 -17 -13 10 -15 5 -13 -30 1 -23 2 -44 3 -47 1 -3 2
-14 1 -25 -2 -17 0 -18 9 -5 10 13 11 12 6 -3 -3 -10 -6 -21 -6 -23 0 -3 -4
-3 -8 0 -10 6 -8 -42 3 -51 4 -5 5 -2 0 6 -6 10 -4 12 4 7 7 -5 9 -12 3 -19
-13 -16 -11 -50 2 -59 7 -5 4 -8 -8 -8 -12 0 -16 -5 -12 -15 3 -8 9 -22 13
-32 4 -11 3 -14 -6 -8 -10 6 -11 3 -2 -12 6 -11 8 -23 4 -26 -3 -4 -1 -13 5
-20 9 -10 8 -18 -2 -33 -11 -14 -12 -22 -3 -32 14 -17 19 -44 7 -37 -5 3 -7
-5 -4 -17 3 -13 7 -46 9 -75 2 -28 6 -57 10 -62 3 -6 1 -11 -6 -11 -10 0 -10
-3 -1 -12 18 -18 14 -32 -5 -17 -15 13 -15 12 -1 -11 16 -27 17 -38 5 -57 -5
-8 -3 -11 5 -8 10 4 13 -18 12 -102 0 -69 4 -116 12 -129 10 -16 10 -24 1 -33
-9 -9 -9 -16 0 -30 10 -16 9 -22 -3 -32 -14 -12 -14 -14 3 -26 15 -12 16 -15
3 -23 -12 -8 -12 -10 -1 -10 11 0 11 -3 1 -15 -7 -8 -8 -15 -3 -15 5 0 9 -16
10 -36 0 -27 -3 -34 -14 -30 -8 3 -11 1 -8 -4 9 -14 -8 -12 -24 3 -12 10 -13
8 -7 -8 6 -17 3 -16 -17 5 -13 14 -24 29 -25 33 -1 4 -8 15 -17 24 -9 8 -13
23 -10 31 3 9 3 13 -1 10 -8 -8 -34 16 -34 31 0 6 -4 11 -10 11 -5 0 -10 7
-10 15 0 8 -5 15 -11 15 -5 0 -7 5 -4 10 3 6 1 10 -5 10 -6 0 -9 4 -6 8 3 5
-4 14 -14 22 -10 8 -17 17 -15 21 3 4 -2 12 -10 19 -8 7 -15 19 -15 26 0 8 -5
14 -11 14 -5 0 -7 5 -4 10 3 6 1 10 -5 10 -6 0 -18 16 -26 35 -9 24 -19 33
-27 28 -7 -4 -6 0 2 11 12 15 12 17 0 14 -8 -2 -13 3 -11 10 1 6 -3 12 -9 12
-5 0 -7 5 -4 10 3 6 -1 10 -11 10 -14 0 -14 3 -4 15 11 13 10 14 -4 9 -11 -4
-16 -2 -14 7 2 8 -2 13 -9 12 -7 -2 -10 6 -8 17 3 13 -2 20 -12 20 -9 0 -13 6
-10 14 3 8 -1 17 -9 20 -9 3 -12 10 -9 16 3 5 -1 10 -9 10 -9 0 -16 9 -16 20
0 11 -5 20 -11 20 -5 0 -7 5 -4 10 3 6 -1 10 -10 10 -9 0 -13 5 -10 11 4 5 -3
18 -14 28 -12 10 -21 26 -21 35 0 9 -4 16 -10 16 -5 0 -7 7 -3 15 3 9 2 15 -3
14 -5 -1 -16 -1 -24 0 -13 1 -13 2 0 11 11 7 11 10 2 10 -7 0 -10 5 -7 10 3 6
-1 10 -9 10 -10 0 -13 7 -11 20 2 11 0 18 -6 15 -5 -4 -9 1 -9 9 0 9 -8 16
-17 16 -15 0 -16 2 -3 10 13 8 12 10 -3 10 -10 0 -15 5 -12 10 3 6 1 10 -5 10
-7 0 -9 7 -6 16 4 11 2 15 -8 11 -18 -7 -34 12 -31 36 2 9 -1 15 -6 11 -5 -3
-9 2 -9 11 0 9 -4 13 -10 10 -5 -3 -10 1 -10 9 0 9 -5 16 -12 16 -6 0 -8 3 -5
6 3 4 -5 15 -18 26 -14 11 -25 26 -25 34 0 8 -4 14 -10 14 -5 0 -10 7 -10 15
0 7 -8 19 -17 24 -10 6 -14 11 -9 11 5 0 -1 9 -14 20 -15 13 -18 20 -9 20 8 0
3 6 -11 13 -14 8 -24 19 -22 25 1 7 -3 12 -9 12 -5 0 -7 5 -4 10 3 6 -1 10
-10 10 -9 0 -14 4 -11 9 3 5 -1 12 -10 15 -9 4 -14 13 -10 22 4 10 2 13 -6 8
-8 -5 -9 -2 -5 10 5 12 2 16 -11 14 -11 -2 -18 5 -20 20 -2 12 -10 22 -17 22
-9 0 -12 6 -8 17 4 11 3 14 -5 9 -11 -6 -16 5 -13 26 0 4 -6 5 -14 2 -11 -5
-13 -2 -9 10 4 11 1 16 -12 16 -9 0 -15 3 -11 6 3 4 -1 13 -9 21 -8 8 -11 20
-7 26 3 7 3 9 -2 5 -9 -8 -35 15 -35 31 0 6 -4 11 -10 11 -5 0 -10 9 -10 20 0
11 -5 20 -11 20 -5 0 -7 -5 -3 -12 4 -7 3 -8 -4 -4 -6 4 -9 13 -5 21 3 9 -1
15 -11 15 -9 0 -15 3 -15 8 3 17 -2 35 -7 29 -8 -7 -44 36 -44 52 0 6 -4 11
-10 11 -5 0 -9 3 -9 8 3 19 -2 33 -11 27 -5 -3 -10 1 -10 10 0 9 -4 14 -9 11
-5 -3 -12 1 -15 10 -4 10 -2 13 7 9 6 -4 1 2 -12 13 -14 11 -21 24 -17 31 4 6
4 11 -1 10 -4 -1 -15 -1 -23 0 -12 1 -13 3 -1 10 11 7 9 10 -8 16 -12 3 -19
10 -16 14 2 5 -3 17 -11 27 -9 10 -13 12 -9 4 4 -8 -2 -4 -13 10 -11 13 -18
28 -16 32 3 4 0 8 -5 8 -6 0 -11 7 -11 16 0 8 -4 12 -10 9 -5 -3 -10 1 -10 10
0 10 -5 13 -12 9 -7 -4 -8 -3 -4 4 4 6 -2 20 -14 32 -11 11 -17 20 -13 20 4 0
-3 7 -15 16 -12 8 -20 20 -17 25 4 5 -2 9 -12 10 -10 0 -13 3 -6 6 10 3 10 7
0 18 -7 7 -15 11 -19 8 -5 -2 -8 5 -8 17 0 12 -4 19 -9 15 -5 -3 -17 13 -27
34 -10 22 -20 39 -23 38 -3 -1 -7 2 -8 7 0 5 -8 13 -17 18 -9 5 -16 18 -16 28
0 10 -5 22 -12 26 -8 5 -9 2 -4 -11 5 -14 4 -16 -7 -7 -8 7 -17 9 -20 5 -4 -3
-7 -2 -7 3 0 5 -28 8 -62 7 -35 -1 -63 -3 -63 -3 0 -7 -58 -4 -62 3 -2 4 -11
2 -20 -4 -9 -8 -17 -9 -21 -3 -6 8 -46 11 -54 4 -8 -6 -60 -4 -65 3 -2 4 -11
2 -20 -4 -11 -10 -16 -10 -22 0 -9 14 -17 14 -43 0 -11 -6 -18 -6 -18 0 0 11
-19 9 -39 -3 -8 -5 -16 -4 -21 4 -8 13 -19 13 -37 -2 -9 -7 -13 -7 -13 1 0 7
-8 8 -25 1 -16 -6 -25 -6 -25 1 0 6 -7 6 -20 -1 -14 -8 -20 -8 -20 0 0 8 -6 8
-20 0 -12 -6 -20 -7 -20 -1 0 10 -19 9 -37 -2 -8 -5 -13 -3 -13 3 0 6 -5 8
-12 4 -17 -11 -98 -11 -98 -1 0 4 -9 3 -20 -3 -14 -8 -20 -8 -20 0 0 8 -6 8
-20 0 -12 -6 -20 -7 -20 -1 0 11 -19 9 -39 -3 -7 -5 -16 -5 -20 1 -7 10 -21
11 -38 0 -7 -5 -13 -4 -13 1 0 10 -30 9 -47 -1 -6 -4 -13 -3 -15 3 -1 5 -8 6
-14 2z"/>
<path d="M3836 5447 c3 -10 9 -15 12 -12 3 3 0 11 -7 18 -10 9 -11 8 -5 -6z"/>
<path d="M636 5393 c-6 -14 -5 -15 5 -6 7 7 10 15 7 18 -3 3 -9 -2 -12 -12z"/>
<path d="M3676 5367 c3 -10 9 -15 12 -12 3 3 0 11 -7 18 -10 9 -11 8 -5 -6z"/>
<path d="M4235 5171 c-3 -5 -2 -12 3 -15 5 -3 9 1 9 9 0 17 -3 19 -12 6z"/>
<path d="M3556 5122 c-3 -5 1 -9 9 -9 8 0 12 4 9 9 -3 4 -7 8 -9 8 -2 0 -6 -4
-9 -8z"/>
<path d="M3677 5053 c-10 -9 -9 -23 1 -23 5 0 9 7 9 15 0 17 -1 18 -10 8z"/>
<path d="M3386 5038 c3 -5 10 -6 15 -3 13 9 11 12 -6 12 -8 0 -12 -4 -9 -9z"/>
<path d="M6155 5001 c-3 -5 -2 -12 3 -15 5 -3 9 1 9 9 0 17 -3 19 -12 6z"/>
<path d="M3236 4882 c-3 -5 1 -9 9 -9 8 0 12 4 9 9 -3 4 -7 8 -9 8 -2 0 -6 -4
-9 -8z"/>
<path d="M795 4851 c-3 -5 -2 -12 3 -15 5 -3 9 1 9 9 0 17 -3 19 -12 6z"/>
<path d="M3586 4838 c3 -5 10 -6 15 -3 13 9 11 12 -6 12 -8 0 -12 -4 -9 -9z"/>
<path d="M3160 4826 c0 -2 8 -10 18 -17 15 -13 16 -12 3 4 -13 16 -21 21 -21
13z"/>
<path d="M5675 4681 c-3 -5 -2 -12 3 -15 5 -3 9 1 9 9 0 17 -3 19 -12 6z"/>
<path d="M3666 4642 c-2 -4 4 -8 14 -8 10 0 16 4 14 8 -3 4 -9 8 -14 8 -5 0
-11 -4 -14 -8z"/>
<path d="M3476 4598 c3 -5 10 -6 15 -3 13 9 11 12 -6 12 -8 0 -12 -4 -9 -9z"/>
<path d="M5995 4529 c-4 -6 -5 -12 -2 -15 2 -3 7 2 10 11 7 17 1 20 -8 4z"/>
<path d="M713 4355 c0 -8 4 -12 9 -9 5 3 6 10 3 15 -9 13 -12 11 -12 -6z"/>
<path d="M1300 4046 c0 -2 8 -10 18 -17 15 -13 16 -12 3 4 -13 16 -21 21 -21
13z"/>
<path d="M1470 3959 c0 -5 5 -7 10 -4 6 3 10 8 10 11 0 2 -4 4 -10 4 -5 0 -10
-5 -10 -11z"/>
<path d="M1069 3883 c-13 -16 -12 -17 4 -4 9 7 17 15 17 17 0 8 -8 3 -21 -13z"/>
<path d="M1315 3771 c-3 -5 -2 -12 3 -15 5 -3 9 1 9 9 0 17 -3 19 -12 6z"/>
<path d="M956 3727 c3 -10 9 -15 12 -12 3 3 0 11 -7 18 -10 9 -11 8 -5 -6z"/>
<path d="M995 3680 c-3 -5 -1 -10 4 -10 6 0 11 5 11 10 0 6 -2 10 -4 10 -3 0
-8 -4 -11 -10z"/>
<path d="M1155 3680 c3 -5 8 -10 11 -10 2 0 4 5 4 10 0 6 -5 10 -11 10 -5 0
-7 -4 -4 -10z"/>
<path d="M1359 3618 c-5 -18 -6 -38 -1 -34 7 8 12 36 6 36 -2 0 -4 -1 -5 -2z"/>
<path d="M985 3600 c-3 -6 1 -7 9 -4 18 7 21 14 7 14 -6 0 -13 -4 -16 -10z"/>
<path d="M630 3520 c0 -5 5 -10 10 -10 6 0 10 5 10 10 0 6 -4 10 -10 10 -5 0
-10 -4 -10 -10z"/>
<path d="M710 3520 c0 -5 5 -10 11 -10 5 0 7 5 4 10 -3 6 -8 10 -11 10 -2 0
-4 -4 -4 -10z"/>
<path d="M1199 3378 c-5 -18 -6 -38 -1 -34 7 8 12 36 6 36 -2 0 -4 -1 -5 -2z"/>
<path d="M676 3362 c-3 -5 1 -9 9 -9 8 0 12 4 9 9 -3 4 -7 8 -9 8 -2 0 -6 -4
-9 -8z"/>
<path d="M1135 3329 c-4 -6 -5 -12 -2 -15 2 -3 7 2 10 11 7 17 1 20 -8 4z"/>
<path d="M695 3169 c-4 -6 -5 -12 -2 -15 2 -3 7 2 10 11 7 17 1 20 -8 4z"/>
<path d="M705 2680 c-3 -6 1 -7 9 -4 18 7 21 14 7 14 -6 0 -13 -4 -16 -10z"/>
<path d="M1395 2160 c3 -5 8 -10 11 -10 2 0 4 5 4 10 0 6 -5 10 -11 10 -5 0
-7 -4 -4 -10z"/>
<path d="M1390 2080 c0 -5 5 -10 11 -10 5 0 7 5 4 10 -3 6 -8 10 -11 10 -2 0
-4 -4 -4 -10z"/>
</g>
</svg>
